<?xml version="1.0" encoding="UTF-8" standalone="no"?>
<!-- Created with Inkscape (http://www.inkscape.org/) -->

<svg
   xmlns:dc="http://purl.org/dc/elements/1.1/"
   xmlns:cc="http://creativecommons.org/ns#"
   xmlns:rdf="http://www.w3.org/1999/02/22-rdf-syntax-ns#"
   xmlns:svg="http://www.w3.org/2000/svg"
   xmlns="http://www.w3.org/2000/svg"
   xmlns:sodipodi="http://sodipodi.sourceforge.net/DTD/sodipodi-0.dtd"
   xmlns:inkscape="http://www.inkscape.org/namespaces/inkscape"
   width="99.434471mm"
   height="40.646442mm"
   viewBox="0 0 99.434458 40.646443"
   version="1.1"
   id="svg1370"
   inkscape:version="0.92.4 5da689c313, 2019-01-14"
   sodipodi:docname="juno_darkbg.svg">
  <defs
     id="defs1364">
    <inkscape:path-effect
       effect="skeletal"
       id="path-effect1678-4"
       is_visible="true"
       pattern="m -412.97664,28.209746 c 0.81614,-2.3842 40.82457,-2.6451 61.26553,-2.6451 20.44095,0 59.64173,0.0655 61.26552,2.6451 -1.43276,2.38853 -40.82457,2.6451 -61.26552,2.6451 -20.44096,0 -60.653,-0.34473 -61.26553,-2.6451 z"
       copytype="single_stretched"
       prop_scale="0.58068953"
       scale_y_rel="false"
       spacing="0"
       normal_offset="0"
       tang_offset="0"
       prop_units="false"
       vertical_pattern="false"
       fuse_tolerance="0" />
    <inkscape:path-effect
       effect="skeletal"
       id="path-effect1662-2"
       is_visible="true"
       pattern="m -412.97664,28.209746 c 0.81614,-2.3842 40.82457,-2.6451 61.26553,-2.6451 20.44095,0 59.64173,0.0655 61.26552,2.6451 -1.43276,2.38853 -40.82457,2.6451 -61.26552,2.6451 -20.44096,0 -60.653,-0.34473 -61.26553,-2.6451 z"
       copytype="single_stretched"
       prop_scale="0.58068953"
       scale_y_rel="false"
       spacing="0"
       normal_offset="0"
       tang_offset="0"
       prop_units="false"
       vertical_pattern="false"
       fuse_tolerance="0" />
    <inkscape:path-effect
       effect="skeletal"
       id="path-effect1650-6"
       is_visible="true"
       pattern="m -412.97664,28.209746 c 0.81614,-2.3842 40.82457,-2.6451 61.26553,-2.6451 20.44095,0 59.64173,0.0655 61.26552,2.6451 -1.43276,2.38853 -40.82457,2.6451 -61.26552,2.6451 -20.44096,0 -60.653,-0.34473 -61.26553,-2.6451 z"
       copytype="single_stretched"
       prop_scale="0.58068953"
       scale_y_rel="false"
       spacing="0"
       normal_offset="0"
       tang_offset="0"
       prop_units="false"
       vertical_pattern="false"
       fuse_tolerance="0" />
    <inkscape:perspective
       id="perspective822"
       inkscape:persp3d-origin="22.499997 : 15 : 1"
       inkscape:vp_z="44.999995 : 22.5 : 1"
       inkscape:vp_y="0 : 1000 : 0"
       inkscape:vp_x="0 : 22.5 : 1"
       sodipodi:type="inkscape:persp3d" />
    <inkscape:path-effect
       fuse_tolerance="0"
       vertical_pattern="false"
       prop_units="false"
       tang_offset="0"
       normal_offset="0"
       spacing="0"
       scale_y_rel="false"
       prop_scale="0.58068953"
       copytype="single_stretched"
       pattern="m -412.29614,26.032967 c 0.81614,-2.3842 40.82457,-2.6451 61.26553,-2.6451 20.44095,0 59.64173,0.0655 61.26552,2.6451 -1.43276,2.38853 -40.82457,2.6451 -61.26552,2.6451 -20.44096,0 -60.653,-0.34473 -61.26553,-2.6451 z"
       is_visible="true"
       id="path-effect1678-4-9"
       effect="skeletal" />
    <inkscape:path-effect
       fuse_tolerance="0"
       vertical_pattern="false"
       prop_units="false"
       tang_offset="0"
       normal_offset="0"
       spacing="0"
       scale_y_rel="false"
       prop_scale="0.58068953"
       copytype="single_stretched"
       pattern="m -412.29614,26.032967 c 0.81614,-2.3842 40.82457,-2.6451 61.26553,-2.6451 20.44095,0 59.64173,0.0655 61.26552,2.6451 -1.43276,2.38853 -40.82457,2.6451 -61.26552,2.6451 -20.44096,0 -60.653,-0.34473 -61.26553,-2.6451 z"
       is_visible="true"
       id="path-effect1662-2-3"
       effect="skeletal" />
    <inkscape:path-effect
       fuse_tolerance="0"
       vertical_pattern="false"
       prop_units="false"
       tang_offset="0"
       normal_offset="0"
       spacing="0"
       scale_y_rel="false"
       prop_scale="0.58068953"
       copytype="single_stretched"
       pattern="m -412.29614,26.032967 c 0.81614,-2.3842 40.82457,-2.6451 61.26553,-2.6451 20.44095,0 59.64173,0.0655 61.26552,2.6451 -1.43276,2.38853 -40.82457,2.6451 -61.26552,2.6451 -20.44096,0 -60.653,-0.34473 -61.26553,-2.6451 z"
       is_visible="true"
       id="path-effect1650-6-7"
       effect="skeletal" />
  </defs>
  <sodipodi:namedview
     id="base"
     pagecolor="#ffffff"
     bordercolor="#666666"
     borderopacity="1.0"
     inkscape:pageopacity="0.0"
     inkscape:pageshadow="2"
     inkscape:zoom="1.4"
     inkscape:cx="179.92457"
     inkscape:cy="142.12967"
     inkscape:document-units="mm"
     inkscape:current-layer="layer1"
     showgrid="false"
     inkscape:window-width="1280"
     inkscape:window-height="1375"
     inkscape:window-x="1280"
     inkscape:window-y="30"
     inkscape:window-maximized="0"
     fit-margin-left="3"
     fit-margin-top="3"
     fit-margin-right="3"
     fit-margin-bottom="3" />
  <metadata
     id="metadata1367">
    <rdf:RDF>
      <cc:Work
         rdf:about="">
        <dc:format>image/svg+xml</dc:format>
        <dc:type
           rdf:resource="http://purl.org/dc/dcmitype/StillImage" />
        <dc:title />
      </cc:Work>
    </rdf:RDF>
  </metadata>
  <g
     inkscape:label="Layer 1"
     inkscape:groupmode="layer"
     id="layer1"
     transform="translate(-6.641652,-4.7227705)">
    <g
       transform="translate(-0.68044853,2.1768526)"
       id="layer1-4"
       inkscape:label="Layer 1">
      <path
         sodipodi:nodetypes="cccscc"
         inkscape:path-effect="#path-effect1650-6-7"
         inkscape:original-d="m 26.73575,8.3604721 c -1.568025,-1.478692 -3.264201,-1.6355196 -4.546431,-1.5393526 -0.3414,0.02561 -0.65713,0.109739 -0.95054,0.259237 -3.12965,1.594639 -2.12984,9.8418935 2.23808,18.4144245 4.36792,8.572535 10.245238,14.027641 13.374888,12.433003 3.00975,-1.533541 2.397862,-9.018064 -1.553708,-17.228876"
         id="path1000-5-1"
         style="fill:#9558b2;fill-opacity:1;stroke:#9558b2;stroke-width:0.69999999;stroke-linecap:square;stroke-linejoin:round;stroke-miterlimit:1;stroke-dasharray:none;stroke-dashoffset:0;stroke-opacity:1"
         d="M 26.73575,8.3604721 C 26.362252,8.5734375 24.71049,7.349449 22.259301,7.7541176 c -0.206885,0.041716 -0.407578,0.113822 -0.563924,0.2223684 -0.460776,0.2245479 -0.691746,0.8984517 -0.910226,1.7264421 -0.230779,1.1373309 -0.13012,2.3773269 0.07133,3.8088099 0.588465,3.93734 2.129319,7.704556 3.972719,11.293994 1.029334,1.971644 2.005687,3.623733 3.005726,5.080292 1.001371,1.4585 2.265405,3.063041 3.831727,4.520801 0.934591,0.851899 1.901432,1.660181 2.942077,2.065718 0.669965,0.20504 1.306512,0.384789 1.579025,0.152074 0,0 10e-7,-10e-7 10e-7,-10e-7 0.350622,-0.06651 0.626772,-0.645687 0.888013,-1.276348 0.342507,-1.011821 0.350636,-2.220963 0.301652,-3.41633 -0.292094,-5.885794 -2.55823,-10.548618 -2.079416,-11.23311 0.503779,0.02166 3.837137,4.381653 4.654094,11.007495 0.174453,1.332113 0.214234,2.854899 -0.190561,4.42315 -0.248471,1.125391 -0.959594,2.303553 -2.25751,3.078468 -10e-7,0 -3e-6,2e-6 -3e-6,2e-6 -1.434184,0.6413 -2.885901,0.527628 -3.99429,0.02922 -1.587101,-0.634894 -2.872715,-1.622811 -3.913403,-2.602138 -1.786906,-1.65106 -3.1971,-3.419478 -4.29314,-5.003982 -1.08903,-1.57437 -2.14075,-3.364776 -3.175622,-5.448761 C 20.223874,22.409418 18.67249,18.228812 18.251976,13.828038 18.088674,12.244682 18.118613,10.668475 18.540819,9.1512022 18.83024,7.919232 19.623058,6.8047763 20.79061,6.2007703 c 0.449697,-0.200443 0.904281,-0.2887782 1.330068,-0.2947796 3.732955,-0.036407 4.673353,2.3533432 4.615072,2.4544814 z"
         inkscape:connector-curvature="0" />
      <path
         id="path1002-5-9"
         style="fill:#389826;fill-opacity:1;stroke:#389826;stroke-width:0.69999999;stroke-linecap:round;stroke-miterlimit:4;stroke-dasharray:none;stroke-opacity:1"
         d="m 42.444319,27.318077 c -0.03558,-0.274826 0.475815,-0.681457 1.302946,-1.34551 0.730579,-0.586538 1.976889,-1.545209 1.70743,-2.513513 0.0377,-0.479686 -0.427317,-0.99494 -1.015197,-1.585268 -0.864013,-0.764875 -1.990736,-1.294552 -3.302827,-1.828991 -4.005215,-1.589073 -8.305409,-2.062479 -11.730799,-2.253384 0,0 -0.0038,-2.09e-4 -0.0038,-2.09e-4 0,0 -2e-6,0 -2e-6,0 -0.7934,-0.04146 -1.662759,-0.07059 -2.567291,-0.06935 0,0 -1e-6,0 -1e-6,0 -3.279039,0.01739 -6.843571,0.25623 -10.146474,1.356736 -1.138639,0.392142 -2.108648,0.783897 -2.857053,1.379735 -0.524838,0.465382 -0.937881,0.884511 -0.956344,1.293234 -0.367913,0.886562 0.6936,1.929444 1.346887,2.59671 0.735572,0.75131 1.208779,1.229753 1.192798,1.544023 -0.180105,0.148007 -0.9342,0.13082 -1.982208,-0.385988 -0.959039,-0.472935 -2.54941,-1.606966 -2.759433,-3.870124 0.06405,-1.218395 0.648043,-2.32201 1.522828,-3.070706 1.041184,-0.953922 2.273614,-1.609556 3.551538,-2.094026 3.710933,-1.443287 7.638756,-1.802657 11.077139,-1.814128 0,0 1e-6,0 1e-6,0 0.9764,-0.0068 1.901235,0.02214 2.738394,0.06613 0,0 10e-7,0 10e-7,0 1e-6,0 0.004,1.96e-4 0.004,1.96e-4 3.585309,0.17702 8.253244,0.767762 12.657917,2.763903 1.435005,0.636579 2.804556,1.451524 3.930781,2.597034 0.929031,0.867205 1.511219,2.133349 1.451394,3.487263 -0.451917,2.282526 -2.22767,3.244173 -3.229542,3.60338 -1.112287,0.398794 -1.821396,0.321309 -1.93308,0.142853 z"
         inkscape:connector-curvature="0"
         inkscape:path-effect="#path-effect1662-2-3"
         inkscape:original-d="m 42.444319,27.318077 c 2.48711,-0.964824 4.01645,-2.285431 4.09593,-3.802134 0.18383,-3.50768 -7.44975,-6.755083 -17.05775,-7.258618 -0.90075,-0.04721 -1.78647,-0.07205 -2.65285,-0.06913 -8.37499,0.02819 -14.91232,2.32562 -15.07892,5.504452 -0.0793,1.513728 1.29978,2.981534 3.66388,4.19963" />
      <path
         id="path1004-0-0"
         style="opacity:1;fill:#cb3c33;fill-opacity:1;stroke:#cb3c33;stroke-width:0.69999999;stroke-linecap:round;stroke-miterlimit:4;stroke-dasharray:none;stroke-opacity:1"
         d="m 39.756899,14.122944 c -0.26384,-0.124896 -0.326122,-0.854355 -0.431404,-2.056248 -0.09298,-1.061512 -0.208775,-2.8472461 -1.301818,-3.1312449 0,8e-7 -10e-7,-2e-7 -10e-7,-2e-7 -0.236455,-0.1364035 -0.589015,-0.1614915 -0.977312,-0.1334496 -10e-7,2e-7 -10e-7,10e-8 -10e-7,10e-8 -1.794942,0.085679 -3.351546,1.5199446 -5.293999,3.1462356 -2.829691,2.557278 -5.022384,5.534117 -6.650323,8.031806 -1.1e-5,1.6e-5 -0.02806,0.04356 -0.02807,0.04358 -1.857006,2.885138 -3.968909,6.636866 -5.00905,10.784658 -0.328938,1.365734 -0.5583,2.590044 -0.440163,3.730835 0.137961,0.800967 0.276334,1.470298 0.668157,1.694609 0.674752,0.873093 2.302222,0.278325 3.330357,-0.07247 1.157765,-0.39502 1.884749,-0.644756 2.178069,-0.478485 0.04862,0.238209 -0.376039,0.986085 -1.455114,1.778472 -0.985448,0.723634 -2.975941,1.754049 -5.299107,0.690836 -1.153462,-0.774155 -1.828015,-2.00785 -1.976188,-3.263516 -0.26034,-1.5997 -0.105964,-3.191986 0.225414,-4.717356 0.983658,-4.71173 3.23516,-8.807931 5.199508,-11.818611 -1.7e-5,2.6e-5 0.02984,-0.04569 0.02983,-0.04566 1.706506,-2.636748 4.115269,-5.820734 7.343908,-8.524033 1.943748,-1.747107 4.296756,-3.3005648 7.085461,-3.386312 0.795459,-0.016376 1.594489,0.2149263 2.278099,0.6764305 1.928475,1.6947217 1.768062,3.9592765 1.511247,5.1232665 -0.285805,1.295388 -0.771037,1.926536 -0.987494,1.926657 z"
         inkscape:connector-curvature="0"
         inkscape:label="path3773"
         inkscape:path-effect="#path-effect1678-4-9"
         inkscape:original-d="m 39.756899,14.122944 c 0.5842,-2.973326 0.2575,-5.2298798 -1.12335,-6.1266192 -0.46029,-0.2989113 -1.01213,-0.4297133 -1.63319,-0.4061373 -3.35376,0.127323 -8.76519,4.7450845 -13.1865,11.5533015 -5.24006,8.069002 -7.10224,16.155737 -4.15642,18.068778 1.39834,0.908092 3.62659,0.264364 6.1439,-1.529496" />
    </g>
    <g
       aria-label="Juno"
       style="font-style:normal;font-weight:normal;font-size:22.49966621px;line-height:1.25;font-family:sans-serif;letter-spacing:0px;word-spacing:0px;fill:#ffffff;fill-opacity:1;stroke:none;stroke-width:0.5624916"
       id="text847">
      <path
         d="m 55.886818,16.159435 h 3.845157 V 27.66195 q 0,0.955796 -0.351557,1.757786 -0.351557,0.80199 -1.054672,1.384257 -0.692128,0.582267 -1.7468,0.911852 -1.054672,0.329584 -2.471887,0.329584 -0.791004,0 -1.46116,-0.14282 -0.670156,-0.131834 -1.252423,-0.351557 -0.571281,-0.230709 -1.076644,-0.51635 -0.505364,-0.296626 -0.966783,-0.593253 l 1.076644,-1.37327 q 0.241696,0.230709 0.582267,0.483391 0.351557,0.241696 0.769032,0.439447 0.42846,0.197751 0.911851,0.329585 0.483392,0.120847 1.010728,0.120847 1.010727,0 1.592994,-0.527336 0.593253,-0.538322 0.593253,-1.439187 z"
         style="font-style:normal;font-variant:normal;font-weight:bold;font-stretch:normal;font-size:22.49966621px;font-family:'Tamil MN';-inkscape-font-specification:'Tamil MN, Bold';font-variant-ligatures:normal;font-variant-caps:normal;font-variant-numeric:normal;font-feature-settings:normal;text-align:start;writing-mode:lr-tb;text-anchor:start;fill:#ffffff;fill-opacity:1;stroke-width:0.5624916"
         id="path828"
         inkscape:connector-curvature="0" />
      <path
         d="m 66.378606,20.015579 v 8.30554 q 0,0.351558 0.131834,0.65917 0.14282,0.296627 0.37353,0.51635 0.241695,0.219723 0.549308,0.351557 0.318599,0.131834 0.670156,0.131834 0.197751,0 0.450433,-0.109861 0.252681,-0.109862 0.505363,-0.307613 0.263668,-0.197751 0.505364,-0.461419 0.252682,-0.263668 0.450433,-0.582267 v -8.503291 h 3.581489 v 11.788155 h -3.581489 v -1.098617 q -0.703115,0.604239 -1.505105,0.966783 -0.791004,0.351557 -1.549049,0.351557 -0.878894,0 -1.636939,-0.28564 -0.758045,-0.296627 -1.31834,-0.791004 -0.560294,-0.505364 -0.878893,-1.17552 -0.318599,-0.681142 -0.318599,-1.450174 v -8.30554 z"
         style="font-style:normal;font-variant:normal;font-weight:bold;font-stretch:normal;font-size:22.49966621px;font-family:'Tamil MN';-inkscape-font-specification:'Tamil MN, Bold';font-variant-ligatures:normal;font-variant-caps:normal;font-variant-numeric:normal;font-feature-settings:normal;text-align:start;writing-mode:lr-tb;text-anchor:start;fill:#ffffff;fill-opacity:1;stroke-width:0.5624916"
         id="path830"
         inkscape:connector-curvature="0" />
      <path
         d="m 83.6159,23.728902 q 0,-0.450432 -0.09888,-0.80199 -0.09888,-0.351557 -0.263668,-0.582266 -0.164792,-0.241696 -0.384516,-0.362544 -0.208737,-0.120848 -0.439446,-0.120848 -0.23071,0 -0.538322,0.09888 -0.296627,0.08789 -0.626212,0.263668 -0.329585,0.164792 -0.670156,0.406488 -0.340571,0.241696 -0.65917,0.538322 v 8.635126 H 76.343058 V 20.015579 h 3.592476 v 0.922837 q 0.823963,-0.604239 1.768773,-0.878893 0.94481,-0.28564 1.88962,-0.28564 0.725087,0 1.373271,0.28564 0.65917,0.274654 1.142561,0.769032 0.494377,0.483391 0.780018,1.142561 0.296626,0.648184 0.296626,1.395243 v 8.437375 H 83.6159 Z"
         style="font-style:normal;font-variant:normal;font-weight:bold;font-stretch:normal;font-size:22.49966621px;font-family:'Tamil MN';-inkscape-font-specification:'Tamil MN, Bold';font-variant-ligatures:normal;font-variant-caps:normal;font-variant-numeric:normal;font-feature-settings:normal;text-align:start;writing-mode:lr-tb;text-anchor:start;fill:#ffffff;fill-opacity:1;stroke-width:0.5624916"
         id="path832"
         inkscape:connector-curvature="0" />
      <path
         d="m 95.898432,32.023457 q -1.40623,0 -2.603722,-0.461419 -1.197492,-0.461419 -2.065399,-1.263409 -0.867907,-0.812976 -1.362284,-1.911593 -0.483391,-1.098616 -0.483391,-2.362025 0,-1.362285 0.483391,-2.504846 0.494377,-1.153547 1.362284,-1.977509 0.867907,-0.834949 2.054413,-1.296368 1.197492,-0.472405 2.603721,-0.472405 1.40623,0 2.603722,0.461419 1.208478,0.450433 2.076383,1.252423 0.8789,0.80199 1.37327,1.878634 0.49438,1.076644 0.49438,2.318081 0,1.307353 -0.49438,2.460901 -0.49437,1.153547 -1.37327,2.021454 -0.867905,0.856921 -2.065397,1.362285 -1.197492,0.494377 -2.603721,0.494377 z m 0.417474,-1.439188 q 0.494377,0 0.900865,-0.318598 0.417475,-0.318599 0.714101,-0.856921 0.296627,-0.538322 0.461419,-1.241437 0.175779,-0.703114 0.175779,-1.472146 0,-1.131575 -0.164793,-2.131316 -0.164792,-0.999741 -0.549308,-1.7468 -0.37353,-0.747059 -0.988755,-1.186506 -0.604239,-0.439447 -1.483132,-0.439447 -0.417474,0 -0.812976,0.318599 -0.384516,0.307613 -0.681143,0.834949 -0.296626,0.527336 -0.483391,1.219464 -0.175779,0.692128 -0.175779,1.450174 0,1.142561 0.208738,2.153288 0.208737,1.010727 0.604239,1.768773 0.406488,0.758045 0.977768,1.208478 0.571281,0.439446 1.296368,0.439446 z"
         style="font-style:normal;font-variant:normal;font-weight:bold;font-stretch:normal;font-size:22.49966621px;font-family:'Tamil MN';-inkscape-font-specification:'Tamil MN, Bold';font-variant-ligatures:normal;font-variant-caps:normal;font-variant-numeric:normal;font-feature-settings:normal;text-align:start;writing-mode:lr-tb;text-anchor:start;fill:#ffffff;fill-opacity:1;stroke-width:0.5624916"
         id="path834"
         inkscape:connector-curvature="0" />
    </g>
  </g>
</svg>
